<mxfile host="app.diagrams.net" modified="2022-05-09T04:13:24.553Z" agent="5.0 (Windows)" etag="r5W3nwnoAmSXndMQ4wHZ" version="18.0.2" type="github">
  <diagram id="C5RBs43oDa-KdzZeNtuy" name="Page-1">
    <mxGraphModel dx="1354" dy="743" grid="1" gridSize="10" guides="1" tooltips="1" connect="1" arrows="1" fold="1" page="1" pageScale="1" pageWidth="827" pageHeight="1169" math="0" shadow="0">
      <root>
        <mxCell id="WIyWlLk6GJQsqaUBKTNV-0" />
        <mxCell id="WIyWlLk6GJQsqaUBKTNV-1" parent="WIyWlLk6GJQsqaUBKTNV-0" />
        <mxCell id="reN0ZtJrmQtX8sPxOkDi-0" value="Command" style="swimlane;fontStyle=0;childLayout=stackLayout;horizontal=1;startSize=30;horizontalStack=0;resizeParent=1;resizeParentMax=0;resizeLast=0;collapsible=1;marginBottom=0;" vertex="1" parent="WIyWlLk6GJQsqaUBKTNV-1">
          <mxGeometry x="220" y="96" width="150" height="188" as="geometry" />
        </mxCell>
        <mxCell id="reN0ZtJrmQtX8sPxOkDi-24" value="" style="line;html=1;strokeWidth=1;align=left;verticalAlign=middle;spacingTop=-1;spacingLeft=3;spacingRight=3;rotatable=0;labelPosition=right;points=[];portConstraint=eastwest;" vertex="1" parent="reN0ZtJrmQtX8sPxOkDi-0">
          <mxGeometry y="30" width="150" height="8" as="geometry" />
        </mxCell>
        <mxCell id="reN0ZtJrmQtX8sPxOkDi-2" value="+addToken()" style="text;strokeColor=none;fillColor=none;align=left;verticalAlign=middle;spacingLeft=4;spacingRight=4;overflow=hidden;points=[[0,0.5],[1,0.5]];portConstraint=eastwest;rotatable=0;" vertex="1" parent="reN0ZtJrmQtX8sPxOkDi-0">
          <mxGeometry y="38" width="150" height="30" as="geometry" />
        </mxCell>
        <mxCell id="reN0ZtJrmQtX8sPxOkDi-3" value="+isValidVaraible()" style="text;strokeColor=none;fillColor=none;align=left;verticalAlign=middle;spacingLeft=4;spacingRight=4;overflow=hidden;points=[[0,0.5],[1,0.5]];portConstraint=eastwest;rotatable=0;" vertex="1" parent="reN0ZtJrmQtX8sPxOkDi-0">
          <mxGeometry y="68" width="150" height="30" as="geometry" />
        </mxCell>
        <mxCell id="reN0ZtJrmQtX8sPxOkDi-29" value="+getTokenIndex()" style="text;strokeColor=none;fillColor=none;align=left;verticalAlign=middle;spacingLeft=4;spacingRight=4;overflow=hidden;points=[[0,0.5],[1,0.5]];portConstraint=eastwest;rotatable=0;" vertex="1" parent="reN0ZtJrmQtX8sPxOkDi-0">
          <mxGeometry y="98" width="150" height="30" as="geometry" />
        </mxCell>
        <mxCell id="reN0ZtJrmQtX8sPxOkDi-30" value="+getVariableNameIndex()" style="text;strokeColor=none;fillColor=none;align=left;verticalAlign=middle;spacingLeft=4;spacingRight=4;overflow=hidden;points=[[0,0.5],[1,0.5]];portConstraint=eastwest;rotatable=0;" vertex="1" parent="reN0ZtJrmQtX8sPxOkDi-0">
          <mxGeometry y="128" width="150" height="30" as="geometry" />
        </mxCell>
        <mxCell id="reN0ZtJrmQtX8sPxOkDi-31" value="+getValueIndex()" style="text;strokeColor=none;fillColor=none;align=left;verticalAlign=middle;spacingLeft=4;spacingRight=4;overflow=hidden;points=[[0,0.5],[1,0.5]];portConstraint=eastwest;rotatable=0;" vertex="1" parent="reN0ZtJrmQtX8sPxOkDi-0">
          <mxGeometry y="158" width="150" height="30" as="geometry" />
        </mxCell>
        <mxCell id="reN0ZtJrmQtX8sPxOkDi-12" value="" style="edgeStyle=orthogonalEdgeStyle;rounded=0;orthogonalLoop=1;jettySize=auto;html=1;endArrow=block;endFill=0;" edge="1" parent="WIyWlLk6GJQsqaUBKTNV-1" source="reN0ZtJrmQtX8sPxOkDi-4" target="reN0ZtJrmQtX8sPxOkDi-31">
          <mxGeometry relative="1" as="geometry">
            <mxPoint x="239" y="318" as="targetPoint" />
            <Array as="points">
              <mxPoint x="200" y="380" />
              <mxPoint x="295" y="380" />
            </Array>
          </mxGeometry>
        </mxCell>
        <mxCell id="reN0ZtJrmQtX8sPxOkDi-4" value="SaveCommand" style="swimlane;fontStyle=0;childLayout=stackLayout;horizontal=1;startSize=30;horizontalStack=0;resizeParent=1;resizeParentMax=0;resizeLast=0;collapsible=1;marginBottom=0;" vertex="1" parent="WIyWlLk6GJQsqaUBKTNV-1">
          <mxGeometry x="130" y="421" width="140" height="98" as="geometry" />
        </mxCell>
        <mxCell id="reN0ZtJrmQtX8sPxOkDi-32" value="" style="line;html=1;strokeWidth=1;align=left;verticalAlign=middle;spacingTop=-1;spacingLeft=3;spacingRight=3;rotatable=0;labelPosition=right;points=[];portConstraint=eastwest;" vertex="1" parent="reN0ZtJrmQtX8sPxOkDi-4">
          <mxGeometry y="30" width="140" height="8" as="geometry" />
        </mxCell>
        <mxCell id="reN0ZtJrmQtX8sPxOkDi-5" value="+isSaveCommand()" style="text;strokeColor=none;fillColor=none;align=left;verticalAlign=middle;spacingLeft=4;spacingRight=4;overflow=hidden;points=[[0,0.5],[1,0.5]];portConstraint=eastwest;rotatable=0;" vertex="1" parent="reN0ZtJrmQtX8sPxOkDi-4">
          <mxGeometry y="38" width="140" height="30" as="geometry" />
        </mxCell>
        <mxCell id="reN0ZtJrmQtX8sPxOkDi-6" value="+getSaveTokens()" style="text;strokeColor=none;fillColor=none;align=left;verticalAlign=middle;spacingLeft=4;spacingRight=4;overflow=hidden;points=[[0,0.5],[1,0.5]];portConstraint=eastwest;rotatable=0;" vertex="1" parent="reN0ZtJrmQtX8sPxOkDi-4">
          <mxGeometry y="68" width="140" height="30" as="geometry" />
        </mxCell>
        <mxCell id="reN0ZtJrmQtX8sPxOkDi-14" style="edgeStyle=orthogonalEdgeStyle;rounded=0;orthogonalLoop=1;jettySize=auto;html=1;exitX=0.5;exitY=0;exitDx=0;exitDy=0;endArrow=none;endFill=0;" edge="1" parent="WIyWlLk6GJQsqaUBKTNV-1" source="reN0ZtJrmQtX8sPxOkDi-8">
          <mxGeometry relative="1" as="geometry">
            <mxPoint x="290" y="380" as="targetPoint" />
            <Array as="points">
              <mxPoint x="369" y="380" />
              <mxPoint x="239" y="380" />
            </Array>
          </mxGeometry>
        </mxCell>
        <mxCell id="reN0ZtJrmQtX8sPxOkDi-8" value="ShowCommand" style="swimlane;fontStyle=0;childLayout=stackLayout;horizontal=1;startSize=30;horizontalStack=0;resizeParent=1;resizeParentMax=0;resizeLast=0;collapsible=1;marginBottom=0;" vertex="1" parent="WIyWlLk6GJQsqaUBKTNV-1">
          <mxGeometry x="340" y="421" width="140" height="98" as="geometry" />
        </mxCell>
        <mxCell id="reN0ZtJrmQtX8sPxOkDi-33" value="" style="line;html=1;strokeWidth=1;align=left;verticalAlign=middle;spacingTop=-1;spacingLeft=3;spacingRight=3;rotatable=0;labelPosition=right;points=[];portConstraint=eastwest;" vertex="1" parent="reN0ZtJrmQtX8sPxOkDi-8">
          <mxGeometry y="30" width="140" height="8" as="geometry" />
        </mxCell>
        <mxCell id="reN0ZtJrmQtX8sPxOkDi-34" value="+isShowCommand()" style="text;strokeColor=none;fillColor=none;align=left;verticalAlign=middle;spacingLeft=4;spacingRight=4;overflow=hidden;points=[[0,0.5],[1,0.5]];portConstraint=eastwest;rotatable=0;" vertex="1" parent="reN0ZtJrmQtX8sPxOkDi-8">
          <mxGeometry y="38" width="140" height="30" as="geometry" />
        </mxCell>
        <mxCell id="reN0ZtJrmQtX8sPxOkDi-35" value="+getShowTokens()" style="text;strokeColor=none;fillColor=none;align=left;verticalAlign=middle;spacingLeft=4;spacingRight=4;overflow=hidden;points=[[0,0.5],[1,0.5]];portConstraint=eastwest;rotatable=0;" vertex="1" parent="reN0ZtJrmQtX8sPxOkDi-8">
          <mxGeometry y="68" width="140" height="30" as="geometry" />
        </mxCell>
        <mxCell id="reN0ZtJrmQtX8sPxOkDi-16" value="Parser" style="swimlane;fontStyle=0;childLayout=stackLayout;horizontal=1;startSize=30;horizontalStack=0;resizeParent=1;resizeParentMax=0;resizeLast=0;collapsible=1;marginBottom=0;" vertex="1" parent="WIyWlLk6GJQsqaUBKTNV-1">
          <mxGeometry x="590" y="96" width="140" height="278" as="geometry" />
        </mxCell>
        <mxCell id="reN0ZtJrmQtX8sPxOkDi-17" value="-tokens" style="text;strokeColor=none;fillColor=none;align=left;verticalAlign=middle;spacingLeft=4;spacingRight=4;overflow=hidden;points=[[0,0.5],[1,0.5]];portConstraint=eastwest;rotatable=0;" vertex="1" parent="reN0ZtJrmQtX8sPxOkDi-16">
          <mxGeometry y="30" width="140" height="30" as="geometry" />
        </mxCell>
        <mxCell id="reN0ZtJrmQtX8sPxOkDi-18" value="-readSimcFile" style="text;strokeColor=none;fillColor=none;align=left;verticalAlign=middle;spacingLeft=4;spacingRight=4;overflow=hidden;points=[[0,0.5],[1,0.5]];portConstraint=eastwest;rotatable=0;" vertex="1" parent="reN0ZtJrmQtX8sPxOkDi-16">
          <mxGeometry y="60" width="140" height="30" as="geometry" />
        </mxCell>
        <mxCell id="reN0ZtJrmQtX8sPxOkDi-19" value="-simcFileName" style="text;strokeColor=none;fillColor=none;align=left;verticalAlign=middle;spacingLeft=4;spacingRight=4;overflow=hidden;points=[[0,0.5],[1,0.5]];portConstraint=eastwest;rotatable=0;" vertex="1" parent="reN0ZtJrmQtX8sPxOkDi-16">
          <mxGeometry y="90" width="140" height="30" as="geometry" />
        </mxCell>
        <mxCell id="zkfFHV4jXpPFQw0GAbJ--15" value="" style="line;html=1;strokeWidth=1;align=left;verticalAlign=middle;spacingTop=-1;spacingLeft=3;spacingRight=3;rotatable=0;labelPosition=right;points=[];portConstraint=eastwest;" parent="reN0ZtJrmQtX8sPxOkDi-16" vertex="1">
          <mxGeometry y="120" width="140" height="8" as="geometry" />
        </mxCell>
        <mxCell id="reN0ZtJrmQtX8sPxOkDi-37" value="-tokenize()" style="text;strokeColor=none;fillColor=none;align=left;verticalAlign=middle;spacingLeft=4;spacingRight=4;overflow=hidden;points=[[0,0.5],[1,0.5]];portConstraint=eastwest;rotatable=0;" vertex="1" parent="reN0ZtJrmQtX8sPxOkDi-16">
          <mxGeometry y="128" width="140" height="30" as="geometry" />
        </mxCell>
        <mxCell id="reN0ZtJrmQtX8sPxOkDi-38" value="+setTokens()" style="text;strokeColor=none;fillColor=none;align=left;verticalAlign=middle;spacingLeft=4;spacingRight=4;overflow=hidden;points=[[0,0.5],[1,0.5]];portConstraint=eastwest;rotatable=0;" vertex="1" parent="reN0ZtJrmQtX8sPxOkDi-16">
          <mxGeometry y="158" width="140" height="30" as="geometry" />
        </mxCell>
        <mxCell id="reN0ZtJrmQtX8sPxOkDi-39" value="+isReadSimcFile()" style="text;strokeColor=none;fillColor=none;align=left;verticalAlign=middle;spacingLeft=4;spacingRight=4;overflow=hidden;points=[[0,0.5],[1,0.5]];portConstraint=eastwest;rotatable=0;" vertex="1" parent="reN0ZtJrmQtX8sPxOkDi-16">
          <mxGeometry y="188" width="140" height="30" as="geometry" />
        </mxCell>
        <mxCell id="reN0ZtJrmQtX8sPxOkDi-40" value="+getSimcFilename()" style="text;strokeColor=none;fillColor=none;align=left;verticalAlign=middle;spacingLeft=4;spacingRight=4;overflow=hidden;points=[[0,0.5],[1,0.5]];portConstraint=eastwest;rotatable=0;" vertex="1" parent="reN0ZtJrmQtX8sPxOkDi-16">
          <mxGeometry y="218" width="140" height="30" as="geometry" />
        </mxCell>
        <mxCell id="reN0ZtJrmQtX8sPxOkDi-41" value="+getTokens()" style="text;strokeColor=none;fillColor=none;align=left;verticalAlign=middle;spacingLeft=4;spacingRight=4;overflow=hidden;points=[[0,0.5],[1,0.5]];portConstraint=eastwest;rotatable=0;" vertex="1" parent="reN0ZtJrmQtX8sPxOkDi-16">
          <mxGeometry y="248" width="140" height="30" as="geometry" />
        </mxCell>
        <mxCell id="reN0ZtJrmQtX8sPxOkDi-20" value="Interpreter" style="swimlane;fontStyle=0;childLayout=stackLayout;horizontal=1;startSize=30;horizontalStack=0;resizeParent=1;resizeParentMax=0;resizeLast=0;collapsible=1;marginBottom=0;" vertex="1" parent="WIyWlLk6GJQsqaUBKTNV-1">
          <mxGeometry x="205" y="600" width="180" height="158" as="geometry" />
        </mxCell>
        <mxCell id="reN0ZtJrmQtX8sPxOkDi-21" value="-passedTokenSets" style="text;strokeColor=none;fillColor=none;align=left;verticalAlign=middle;spacingLeft=4;spacingRight=4;overflow=hidden;points=[[0,0.5],[1,0.5]];portConstraint=eastwest;rotatable=0;" vertex="1" parent="reN0ZtJrmQtX8sPxOkDi-20">
          <mxGeometry y="30" width="180" height="30" as="geometry" />
        </mxCell>
        <mxCell id="reN0ZtJrmQtX8sPxOkDi-42" value="" style="line;html=1;strokeWidth=1;align=left;verticalAlign=middle;spacingTop=-1;spacingLeft=3;spacingRight=3;rotatable=0;labelPosition=right;points=[];portConstraint=eastwest;" vertex="1" parent="reN0ZtJrmQtX8sPxOkDi-20">
          <mxGeometry y="60" width="180" height="8" as="geometry" />
        </mxCell>
        <mxCell id="reN0ZtJrmQtX8sPxOkDi-22" value="+setPassedTokenSets()" style="text;strokeColor=none;fillColor=none;align=left;verticalAlign=middle;spacingLeft=4;spacingRight=4;overflow=hidden;points=[[0,0.5],[1,0.5]];portConstraint=eastwest;rotatable=0;" vertex="1" parent="reN0ZtJrmQtX8sPxOkDi-20">
          <mxGeometry y="68" width="180" height="30" as="geometry" />
        </mxCell>
        <mxCell id="reN0ZtJrmQtX8sPxOkDi-23" value="+interpret()" style="text;strokeColor=none;fillColor=none;align=left;verticalAlign=middle;spacingLeft=4;spacingRight=4;overflow=hidden;points=[[0,0.5],[1,0.5]];portConstraint=eastwest;rotatable=0;" vertex="1" parent="reN0ZtJrmQtX8sPxOkDi-20">
          <mxGeometry y="98" width="180" height="30" as="geometry" />
        </mxCell>
        <mxCell id="reN0ZtJrmQtX8sPxOkDi-43" value="+displayOutput()" style="text;strokeColor=none;fillColor=none;align=left;verticalAlign=middle;spacingLeft=4;spacingRight=4;overflow=hidden;points=[[0,0.5],[1,0.5]];portConstraint=eastwest;rotatable=0;" vertex="1" parent="reN0ZtJrmQtX8sPxOkDi-20">
          <mxGeometry y="128" width="180" height="30" as="geometry" />
        </mxCell>
        <mxCell id="reN0ZtJrmQtX8sPxOkDi-36" value="" style="edgeStyle=orthogonalEdgeStyle;rounded=0;orthogonalLoop=1;jettySize=auto;html=1;endArrow=none;endFill=0;entryX=1;entryY=0.5;entryDx=0;entryDy=0;exitX=0;exitY=0.5;exitDx=0;exitDy=0;" edge="1" parent="WIyWlLk6GJQsqaUBKTNV-1" source="reN0ZtJrmQtX8sPxOkDi-19" target="reN0ZtJrmQtX8sPxOkDi-22">
          <mxGeometry relative="1" as="geometry">
            <Array as="points">
              <mxPoint x="540" y="200" />
              <mxPoint x="540" y="675" />
            </Array>
          </mxGeometry>
        </mxCell>
      </root>
    </mxGraphModel>
  </diagram>
</mxfile>
